<?xml version="1.0" encoding="UTF-8"?>
<svg xmlns="http://www.w3.org/2000/svg" width="579" height="81">
   <defs>
      <style type="text/css">
    @namespace "http://www.w3.org/2000/svg";
    .line                 {fill: none; stroke: #332900; stroke-width: 1;}
    .bold-line            {stroke: #141000; shape-rendering: crispEdges; stroke-width: 2;}
    .thin-line            {stroke: #1F1800; shape-rendering: crispEdges}
    .filled               {fill: #332900; stroke: none;}
    text.terminal         {font-family: Verdana, Sans-serif;
                            font-size: 12px;
                            fill: #141000;
                            font-weight: bold;
                          }
    text.nonterminal      {font-family: Verdana, Sans-serif;
                            font-size: 12px;
                            fill: #1A1400;
                            font-weight: normal;
                          }
    text.regexp           {font-family: Verdana, Sans-serif;
                            font-size: 12px;
                            fill: #1F1800;
                            font-weight: normal;
                          }
    rect, circle, polygon {fill: #332900; stroke: #332900;}
    rect.terminal         {fill: #FFDB4D; stroke: #332900; stroke-width: 1;}
    rect.nonterminal      {fill: #FFEC9E; stroke: #332900; stroke-width: 1;}
    rect.text             {fill: none; stroke: none;}
    polygon.regexp        {fill: #FFF4C7; stroke: #332900; stroke-width: 1;}
  </style>
   </defs>
   <polygon points="9 17 1 13 1 21"/>
   <polygon points="17 17 9 13 9 21"/>
   <rect x="31" y="3" width="62" height="32" rx="10"/>
   <rect x="29"
         y="1"
         width="62"
         height="32"
         class="terminal"
         rx="10"/>
   <text class="terminal" x="39" y="21">delete</text>
   <rect x="133" y="3" width="84" height="32" rx="10"/>
   <rect x="131"
         y="1"
         width="84"
         height="32"
         class="terminal"
         rx="10"/>
   <text class="terminal" x="141" y="21">collection</text>
   <a xmlns:xlink="http://www.w3.org/1999/xlink"
      xlink:href="#StringLiteral"
      xlink:title="StringLiteral">
      <rect x="237" y="3" width="96" height="32"/>
      <rect x="235" y="1" width="96" height="32" class="nonterminal"/>
      <text class="nonterminal" x="245" y="21">StringLiteral</text>
   </a>
   <rect x="353" y="3" width="26" height="32" rx="10"/>
   <rect x="351"
         y="1"
         width="26"
         height="32"
         class="terminal"
         rx="10"/>
   <text class="terminal" x="361" y="21">(</text>
   <a xmlns:xlink="http://www.w3.org/1999/xlink"
      xlink:href="#ExprSingle"
      xlink:title="ExprSingle">
      <rect x="399" y="3" width="86" height="32"/>
      <rect x="397" y="1" width="86" height="32" class="nonterminal"/>
      <text class="nonterminal" x="407" y="21">ExprSingle</text>
   </a>
   <rect x="505" y="3" width="26" height="32" rx="10"/>
   <rect x="503"
         y="1"
         width="26"
         height="32"
         class="terminal"
         rx="10"/>
   <text class="terminal" x="513" y="21">)</text>
   <a xmlns:xlink="http://www.w3.org/1999/xlink"
      xlink:href="#ExprSingle"
      xlink:title="ExprSingle">
      <rect x="133" y="47" width="86" height="32"/>
      <rect x="131" y="45" width="86" height="32" class="nonterminal"/>
      <text class="nonterminal" x="141" y="65">ExprSingle</text>
   </a>
   <rect x="239" y="47" width="52" height="32" rx="10"/>
   <rect x="237"
         y="45"
         width="52"
         height="32"
         class="terminal"
         rx="10"/>
   <text class="terminal" x="247" y="65">from</text>
   <rect x="311" y="47" width="84" height="32" rx="10"/>
   <rect x="309"
         y="45"
         width="84"
         height="32"
         class="terminal"
         rx="10"/>
   <text class="terminal" x="319" y="65">collection</text>
   <path class="line"
         d="m17 17 h2 m0 0 h10 m62 0 h10 m20 0 h10 m84 0 h10 m0 0 h10 m96 0 h10 m0 0 h10 m26 0 h10 m0 0 h10 m86 0 h10 m0 0 h10 m26 0 h10 m-438 0 h20 m418 0 h20 m-458 0 q10 0 10 10 m438 0 q0 -10 10 -10 m-448 10 v24 m438 0 v-24 m-438 24 q0 10 10 10 m418 0 q10 0 10 -10 m-428 10 h10 m86 0 h10 m0 0 h10 m52 0 h10 m0 0 h10 m84 0 h10 m0 0 h136 m23 -44 h-3"/>
   <polygon points="569 17 577 13 577 21"/>
   <polygon points="569 17 561 13 561 21"/>
</svg>
