<?xml version="1.0" encoding="UTF-8"?>
<svg xmlns="http://www.w3.org/2000/svg" width="855" height="169">
   <defs>
      <style type="text/css">
    @namespace "http://www.w3.org/2000/svg";
    .line                 {fill: none; stroke: #332900; stroke-width: 1;}
    .bold-line            {stroke: #141000; shape-rendering: crispEdges; stroke-width: 2;}
    .thin-line            {stroke: #1F1800; shape-rendering: crispEdges}
    .filled               {fill: #332900; stroke: none;}
    text.terminal         {font-family: Verdana, Sans-serif;
                            font-size: 12px;
                            fill: #141000;
                            font-weight: bold;
                          }
    text.nonterminal      {font-family: Verdana, Sans-serif;
                            font-size: 12px;
                            fill: #1A1400;
                            font-weight: normal;
                          }
    text.regexp           {font-family: Verdana, Sans-serif;
                            font-size: 12px;
                            fill: #1F1800;
                            font-weight: normal;
                          }
    rect, circle, polygon {fill: #332900; stroke: #332900;}
    rect.terminal         {fill: #FFDB4D; stroke: #332900; stroke-width: 1;}
    rect.nonterminal      {fill: #FFEC9E; stroke: #332900; stroke-width: 1;}
    rect.text             {fill: none; stroke: none;}
    polygon.regexp        {fill: #FFF4C7; stroke: #332900; stroke-width: 1;}
  </style>
   </defs>
   <polygon points="9 17 1 13 1 21"/>
   <polygon points="17 17 9 13 9 21"/>
   <rect x="31" y="3" width="58" height="32" rx="10"/>
   <rect x="29"
         y="1"
         width="58"
         height="32"
         class="terminal"
         rx="10"/>
   <text class="terminal" x="39" y="21">insert</text>
   <a xmlns:xlink="http://www.w3.org/1999/xlink"
      xlink:href="#ExprSingle"
      xlink:title="ExprSingle">
      <rect x="109" y="3" width="86" height="32"/>
      <rect x="107" y="1" width="86" height="32" class="nonterminal"/>
      <text class="nonterminal" x="117" y="21">ExprSingle</text>
   </a>
   <rect x="255" y="3" width="48" height="32" rx="10"/>
   <rect x="253"
         y="1"
         width="48"
         height="32"
         class="terminal"
         rx="10"/>
   <text class="terminal" x="263" y="21">first</text>
   <rect x="255" y="47" width="44" height="32" rx="10"/>
   <rect x="253"
         y="45"
         width="44"
         height="32"
         class="terminal"
         rx="10"/>
   <text class="terminal" x="263" y="65">last</text>
   <rect x="343" y="3" width="46" height="32" rx="10"/>
   <rect x="341"
         y="1"
         width="46"
         height="32"
         class="terminal"
         rx="10"/>
   <text class="terminal" x="351" y="21">into</text>
   <rect x="409" y="3" width="84" height="32" rx="10"/>
   <rect x="407"
         y="1"
         width="84"
         height="32"
         class="terminal"
         rx="10"/>
   <text class="terminal" x="417" y="21">collection</text>
   <a xmlns:xlink="http://www.w3.org/1999/xlink"
      xlink:href="#StringLiteral"
      xlink:title="StringLiteral">
      <rect x="513" y="3" width="96" height="32"/>
      <rect x="511" y="1" width="96" height="32" class="nonterminal"/>
      <text class="nonterminal" x="521" y="21">StringLiteral</text>
   </a>
   <rect x="629" y="3" width="26" height="32" rx="10"/>
   <rect x="627"
         y="1"
         width="26"
         height="32"
         class="terminal"
         rx="10"/>
   <text class="terminal" x="637" y="21">(</text>
   <a xmlns:xlink="http://www.w3.org/1999/xlink"
      xlink:href="#ExprSingle"
      xlink:title="ExprSingle">
      <rect x="675" y="3" width="86" height="32"/>
      <rect x="673" y="1" width="86" height="32" class="nonterminal"/>
      <text class="nonterminal" x="683" y="21">ExprSingle</text>
   </a>
   <rect x="781" y="3" width="26" height="32" rx="10"/>
   <rect x="779"
         y="1"
         width="26"
         height="32"
         class="terminal"
         rx="10"/>
   <text class="terminal" x="789" y="21">)</text>
   <rect x="255" y="91" width="64" height="32" rx="10"/>
   <rect x="253"
         y="89"
         width="64"
         height="32"
         class="terminal"
         rx="10"/>
   <text class="terminal" x="263" y="109">before</text>
   <rect x="255" y="135" width="52" height="32" rx="10"/>
   <rect x="253"
         y="133"
         width="52"
         height="32"
         class="terminal"
         rx="10"/>
   <text class="terminal" x="263" y="153">after</text>
   <a xmlns:xlink="http://www.w3.org/1999/xlink"
      xlink:href="#ExprSingle"
      xlink:title="ExprSingle">
      <rect x="359" y="91" width="86" height="32"/>
      <rect x="357" y="89" width="86" height="32" class="nonterminal"/>
      <text class="nonterminal" x="367" y="109">ExprSingle</text>
   </a>
   <rect x="465" y="91" width="46" height="32" rx="10"/>
   <rect x="463"
         y="89"
         width="46"
         height="32"
         class="terminal"
         rx="10"/>
   <text class="terminal" x="473" y="109">into</text>
   <rect x="531" y="91" width="84" height="32" rx="10"/>
   <rect x="529"
         y="89"
         width="84"
         height="32"
         class="terminal"
         rx="10"/>
   <text class="terminal" x="539" y="109">collection</text>
   <path class="line"
         d="m17 17 h2 m0 0 h10 m58 0 h10 m0 0 h10 m86 0 h10 m40 0 h10 m48 0 h10 m-88 0 h20 m68 0 h20 m-108 0 q10 0 10 10 m88 0 q0 -10 10 -10 m-98 10 v24 m88 0 v-24 m-88 24 q0 10 10 10 m68 0 q10 0 10 -10 m-78 10 h10 m44 0 h10 m0 0 h4 m20 -44 h10 m46 0 h10 m0 0 h10 m84 0 h10 m0 0 h10 m96 0 h10 m0 0 h10 m26 0 h10 m0 0 h10 m86 0 h10 m0 0 h10 m26 0 h10 m-612 0 h20 m592 0 h20 m-632 0 q10 0 10 10 m612 0 q0 -10 10 -10 m-622 10 v68 m612 0 v-68 m-612 68 q0 10 10 10 m592 0 q10 0 10 -10 m-582 10 h10 m64 0 h10 m-104 0 h20 m84 0 h20 m-124 0 q10 0 10 10 m104 0 q0 -10 10 -10 m-114 10 v24 m104 0 v-24 m-104 24 q0 10 10 10 m84 0 q10 0 10 -10 m-94 10 h10 m52 0 h10 m0 0 h12 m20 -44 h10 m86 0 h10 m0 0 h10 m46 0 h10 m0 0 h10 m84 0 h10 m0 0 h192 m23 -88 h-3"/>
   <polygon points="845 17 853 13 853 21"/>
   <polygon points="845 17 837 13 837 21"/>
</svg>
